<svg xmlns="http://www.w3.org/2000/svg" xmlns:xlink="http://www.w3.org/1999/xlink" viewBox="0 0 300 300"><defs><style>.cls-1{fill:none;}.cls-2{fill:url(#linear-gradient);}.cls-3{clip-path:url(#clip-path);}.cls-4{fill:#f4562c;}.cls-5{fill:#e54b2c;}.cls-6{fill:#e9dada;}.cls-7{fill:#d1c5c5;}.cls-8{fill:#f29853;}.cls-9{clip-path:url(#clip-path-2);}.cls-10{fill:#ef7c2e;}.cls-11{fill:#ffad76;}.cls-12{fill:#e08a4f;}.cls-13{fill:#ff6f38;}.cls-14{fill:#574941;}.cls-15{fill:#a63620;}.cls-16{fill:#fff;}.cls-17{fill:#b85f23;}</style><linearGradient id="linear-gradient" y1="150" x2="300" y2="150" gradientUnits="userSpaceOnUse"><stop offset="0" stop-color="#c166ca"/><stop offset="1" stop-color="#f7a8d5"/></linearGradient><clipPath id="clip-path"><circle class="cls-1" cx="150" cy="150" r="150"/></clipPath><clipPath id="clip-path-2"><path class="cls-1" d="M199.32,230.41c0,11.49-63.37,11.49-63.37,0v-50.7h63.37Z"/></clipPath></defs><title>person</title><g id="Layer_2" data-name="Layer 2"><g id="Layer_1-2" data-name="Layer 1"><circle class="cls-2" cx="150" cy="150" r="150"/><g class="cls-3"><path class="cls-4" d="M55.21,116.61c0,71,50.33,128.49,112.42,128.49s112.42-57.52,112.42-128.49c0-51.67-26.69-96.21-65.18-116.61H120.39C81.91,20.4,55.21,64.94,55.21,116.61Z"/><path class="cls-5" d="M55.21,116.61c0,71,50.33,128.49,112.42,128.49h.89V0H120.39C81.91,20.4,55.21,64.94,55.21,116.61Z"/><path class="cls-6" d="M236.44,231.29H98.83a44.69,44.69,0,0,0-44.56,44.56V300H281V275.85A44.69,44.69,0,0,0,236.44,231.29Z"/><path class="cls-7" d="M162,231.29H98.83a44.69,44.69,0,0,0-44.56,44.56V300H117.4V275.85A44.69,44.69,0,0,1,162,231.29Z"/><path class="cls-8" d="M135.95,179.71v50.7c0,11.49,63.37,11.49,63.37,0v-50.7Z"/><g class="cls-9"><path class="cls-10" d="M145.78,182l-25.63,20.93,13.56,39.71,19-3.27s21.14-19.28,55.11-32.46S145.78,182,145.78,182Z"/></g><path class="cls-11" d="M167.64,37.27h0c-37.43,0-63.2,31.93-60.21,69.24l3.05,60a30.61,30.61,0,0,0,11.3,21.39l27.85,18a28.69,28.69,0,0,0,36,0l27.85-18a30.61,30.61,0,0,0,11.3-21.39l3.05-60C230.83,69.2,205.07,37.27,167.64,37.27Z"/><path class="cls-12" d="M187.63,180.48a45.6,45.6,0,0,0-40,0,3,3,0,1,0,2.61,5.34,39.65,39.65,0,0,1,34.76,0,3,3,0,0,0,2.61-5.34Z"/><path class="cls-13" d="M167.64,37.27h0c-36.07,0-61.3,29.65-60.42,65.19,0,13.82,120.84,13.82,120.84,0C228.94,66.92,203.71,37.27,167.64,37.27Z"/><path class="cls-8" d="M185.84,138.29c3.48,3.82,8.77,6.43,14.29,5.75s8.58-4.33,11-8.87C209.58,122.18,184.25,125.31,185.84,138.29Z"/><path class="cls-14" d="M216,133l-4.9,2.18-.42.78a14.82,14.82,0,0,1-24,2.93,2.6,2.6,0,0,0-3.85,3.5,20,20,0,0,0,32-3.17l3.31-1.47A2.6,2.6,0,1,0,216,133Z"/><rect class="cls-5" x="181.77" y="116.61" width="36.23" height="8.4" rx="3.82" ry="3.82"/><path class="cls-5" d="M171.24.55A6.05,6.05,0,0,0,173.75,0H152.94V.55Z"/><rect class="cls-4" x="153.42" y="0.55" width="41.41" height="12.24" rx="6.12" ry="6.12"/><path class="cls-5" d="M171.24,12.79h-18.3V25h18.3a6.14,6.14,0,0,0,6.12-6.12h0A6.14,6.14,0,0,0,171.24,12.79Z"/><path class="cls-4" d="M188.71,25H159.54a6.12,6.12,0,1,0,0,12.24h29.17a6.12,6.12,0,1,0,0-12.24Z"/><path class="cls-13" d="M204,5.43a6.24,6.24,0,0,0-8.69,3.17l0,.12a6.28,6.28,0,0,0,2.86,7.92c36.78,19.67,62.24,62.52,57.1,111.82a6.27,6.27,0,0,0,6,6.92h.16a6.27,6.27,0,0,0,6.49-5.63C273.51,75.34,245.45,27.55,204,5.43Z"/><polygon class="cls-8" points="100.68 187.45 55.71 187.45 73.4 220.61 73.06 300 118.03 300 118.37 220.61 100.68 187.45"/><path class="cls-10" d="M64.87,187.45a31.43,31.43,0,0,0-4.26,9.2l12.78,24-.05,10.71a31.58,31.58,0,0,0,45-10.38v-.33l-17.69-33.16Z"/><path class="cls-6" d="M139.05,71.67a52.62,52.62,0,0,0-15.93,2.76,56.54,56.54,0,0,1-35.42,0,52.62,52.62,0,0,0-15.93-2.76,34.39,34.39,0,0,0-34.44,34.39l3.19,66a22.93,22.93,0,0,0,9.15,17.23l42,31.49a22.93,22.93,0,0,0,27.51,0l42-31.49A22.93,22.93,0,0,0,170.31,172l3.19-66A34.39,34.39,0,0,0,139.05,71.67Z"/><path class="cls-7" d="M71.77,71.67a34.39,34.39,0,0,0-34.44,34.39l3.19,66a22.93,22.93,0,0,0,9.15,17.23l42,31.49a22.87,22.87,0,0,0,11.71,4.48v-148A56.6,56.6,0,0,1,87.7,74.43,52.62,52.62,0,0,0,71.77,71.67Z"/><path class="cls-15" d="M142.07,168.33a6.61,6.61,0,0,0-9-.48c-17.09,14.09-38.31,14.09-55.4,0a6.6,6.6,0,0,0-9.07,9.55c22.48,24.34,51.05,24.34,73.53,0a6.61,6.61,0,0,0-.11-9.07Z"/><path class="cls-15" d="M92.44,118.59,65,130.74a3.37,3.37,0,0,0-.7,5.74,20.38,20.38,0,0,0,32.85-14.6A3.36,3.36,0,0,0,92.44,118.59Z"/><path class="cls-16" d="M87.27,99.41l-29.1,12.9a4.06,4.06,0,0,0,3.29,7.42l29.1-12.9a4.06,4.06,0,0,0-3.29-7.42Z"/><path class="cls-17" d="M145.81,130.74l-27.43-12.15a3.36,3.36,0,0,0-4.72,3.3,20.38,20.38,0,0,0,32.85,14.6A3.37,3.37,0,0,0,145.81,130.74Z"/><path class="cls-16" d="M152.65,112.3l-29.1-12.9a4.06,4.06,0,0,0-3.29,7.42l29.1,12.9a4.06,4.06,0,1,0,3.29-7.42Z"/><path class="cls-6" d="M96.29,162.79h7.33V132.68L91.26,154.07A5.81,5.81,0,0,0,96.29,162.79Z"/><circle class="cls-6" cx="104.36" cy="211.77" r="13.33"/><path class="cls-8" d="M47.86,152.7,23,169.21a8.61,8.61,0,0,0,9.53,14.35L57.39,167a8.61,8.61,0,0,0-9.53-14.35Z"/><path class="cls-8" d="M82.83,180.39A8.64,8.64,0,0,0,70.89,178L41.71,197.37a8.61,8.61,0,1,0,9.53,14.35l29.19-19.39a8.64,8.64,0,0,0,2.41-11.94Z"/><path class="cls-8" d="M87.71,197.12a8.64,8.64,0,0,0-11.94-2.41l-19.42,12.9A8.61,8.61,0,0,0,65.88,222l19.42-12.9a8.64,8.64,0,0,0,2.41-11.94Z"/><path class="cls-8" d="M76.63,164.61a8.64,8.64,0,0,0-11.94-2.41L30.76,184.74a8.64,8.64,0,0,0-2.41,11.94h0a8.64,8.64,0,0,0,11.94,2.41l33.93-22.54a8.64,8.64,0,0,0,2.41-11.94Z"/><path class="cls-11" d="M64.69,162.2l-31,20.61a8.52,8.52,0,0,0,1.14,2.57h0a8.64,8.64,0,0,0,11.94,2.41l31-20.61a8.52,8.52,0,0,0-1.14-2.57A8.64,8.64,0,0,0,64.69,162.2Z"/><path class="cls-11" d="M47.86,152.7,24.14,168.46A8.52,8.52,0,0,0,25.28,171h0a8.64,8.64,0,0,0,11.94,2.41l23.72-15.76a8.51,8.51,0,0,0-1.14-2.57A8.64,8.64,0,0,0,47.86,152.7Z"/></g></g></g></svg>